<svg xmlns="http://www.w3.org/2000/svg" viewBox="0 0 600 136"><path d="M128.49,31.25L112.64,3.8c-1.18-2.04-3.28-3.25-5.64-3.25c-2.35,0-4.46,1.21-5.64,3.25L85.52,31.25 c5.66,5.28,10.54,11.39,14.42,18.13c2.98,5.14,5.34,10.6,7.07,16.24c1.73-5.64,4.09-11.1,7.06-16.24 C117.97,42.64,122.84,36.53,128.49,31.25" fill="#f68b1f"/><path d="M82.72 75.81l20.84 36.1V88.59c0-12.54-3.31-24.9-9.59-35.76-6.26-10.86-15.32-19.91-26.18-26.18l-14.24-8.22c-2.48-1.44-5.45-1.44-7.94 0-2.48 1.43-3.97 4.01-3.97 6.88v27.22h.72C58.96 52.51 74.42 61.44 82.72 75.81M168.4 18.43c-2.48-1.44-5.45-1.44-7.93 0l-14.24 8.22c-10.86 6.26-19.91 15.32-26.18 26.18-6.26 10.86-9.59 23.22-9.59 35.76v23.32l20.84-36.1c8.3-14.38 23.76-23.3 40.36-23.3h.72V25.3C172.38 22.42 170.89 19.85 168.4 18.43" fill="#faa61a"/><path d="M207.48 59.4h-35.83c-14.15 0-27.32 7.61-34.39 19.86l-24.2 41.93c18.29-.84 36.47-5.46 52.9-13.5 18.11-8.86 34.25-21.92 46.67-37.78 1.56-1.99 1.84-4.55.72-6.84C212.23 60.78 210.03 59.4 207.48 59.4M42.37 59.4H6.53c-2.56 0-4.74 1.37-5.86 3.67-1.12 2.28-.84 4.84.72 6.84 12.42 15.85 28.56 28.92 46.67 37.78 16.43 8.04 34.6 12.66 52.9 13.5l-24.2-41.93C69.68 67.02 56.5 59.4 42.37 59.4" fill="#ffc40c"/><path d="M269.08 52.77l5.27 7-5.74 4.32-5.47-7.21c-2.42 1.06-5.11 1.63-8 1.63-10.84 0-19.16-8.21-19.16-19.06s8.32-19.06 19.16-19.06 19.21 8.21 19.21 19.06C274.35 44.72 272.35 49.4 269.08 52.77zM255.14 51.36c6.64 0 11.58-5 11.58-11.89s-4.94-11.89-11.58-11.89c-6.62 0-11.58 5-11.58 11.89S248.5 51.36 255.14 51.36zM305.72 28.93v28.94h-7.52v-4c-2.1 2.95-4.94 4.63-8.94 4.63-6.37 0-10.32-4.37-10.32-11.42V28.93h7.52v16.52c0 3.79 1.42 5.89 5.32 5.89 4.15 0 6.42-2.47 6.42-7.21v-15.2H305.72zM340.37 45.35h-22.21c.47 4.63 3.62 6.95 7.52 6.95 2.89 0 5.42-1.32 6.42-3.64h7.79c-2.16 6.84-7.94 9.84-14.16 9.84-9.05 0-15.26-6.42-15.26-15.05 0-8.69 6.26-15.16 15.11-15.16C335.16 28.3 341.11 35.83 340.37 45.35zM318.53 39.82h13.84c-.84-3.16-3.22-5.32-6.84-5.32C321.84 34.51 319.47 36.71 318.53 39.82zM374.16 45.35h-22.21c.48 4.63 3.64 6.95 7.52 6.95 2.9 0 5.42-1.32 6.42-3.64h7.79c-2.16 6.84-7.94 9.84-14.16 9.84-9.05 0-15.26-6.42-15.26-15.05 0-8.69 6.26-15.16 15.11-15.16C368.95 28.3 374.9 35.83 374.16 45.35zM352.32 39.82h13.85c-.84-3.16-3.22-5.32-6.84-5.32C355.64 34.51 353.27 36.71 352.32 39.82zM405.75 39.71v18.16h-7.52V41.35c0-3.79-1.42-5.89-5.42-5.89-4.26 0-6.53 2.47-6.53 7.21v15.22h-7.54V28.93h7.54v3.95c2.1-2.95 5-4.58 9-4.58C401.81 28.3 405.75 32.61 405.75 39.71zM409.91 48.35h7.63c.58 2.32 2.32 3.9 7 3.9 3.31 0 4.9-.79 4.9-2.36 0-1.94-2.27-2.1-6.64-3.16-8.21-1.94-11.58-3.79-11.58-8.78 0-6.11 5.05-9.64 12.68-9.64 8.05 0 12 3.9 13 9.26h-7.63c-.58-1.85-2.16-2.95-5.63-2.95-3 0-4.85.84-4.85 2.42 0 1.37 1.32 1.63 5.53 2.58 8.27 1.9 12.9 3.47 12.9 9.26 0 6.47-5.74 9.64-12.9 9.64C416.6 58.51 410.96 54.72 409.91 48.35zM441.66 17.35h7.52v40.52h-7.52V17.35zM483.81 28.93l-.05 28.94h-7.52v-3.9c-2 2.74-5 4.52-9.05 4.52-7.58 0-13.21-6.22-13.21-15.11 0-8.95 5.74-15.11 13.15-15.11 4.1 0 7.16 1.9 9.16 4.68V28.9h7.52V28.93zM476.29 43.41c0-4.74-3.22-7.94-7.43-7.94-4.21 0-7.32 3.2-7.32 7.94 0 4.79 3.16 7.94 7.32 7.94C473.09 51.36 476.29 48.2 476.29 43.41zM516.3 39.71v18.16h-7.52V41.35c0-3.79-1.42-5.89-5.42-5.89-4.26 0-6.53 2.47-6.53 7.21v15.22h-7.54V28.93h7.54v3.95c2.1-2.95 5-4.58 9-4.58C512.35 28.3 516.3 32.61 516.3 39.71zM551.1 17.35v40.52h-7.52v-3.9c-2 2.74-5.05 4.52-9.11 4.52-7.52 0-13.21-6.22-13.21-15.11 0-8.95 5.74-15.11 13.15-15.11 4.1 0 7.16 1.9 9.16 4.68V17.35H551.1zM543.58 43.41c0-4.74-3.22-7.94-7.43-7.94s-7.32 3.2-7.32 7.94c0 4.79 3.16 7.94 7.32 7.94C540.36 51.36 543.58 48.2 543.58 43.41zM236.19 90.09c0-10.85 8.05-19.06 19.06-19.06 8.78 0 15.62 5.42 17.78 13.26h-8.05c-1.73-3.79-5.27-6.11-9.79-6.11-6.79 0-11.42 5-11.42 11.89 0 6.89 4.63 11.89 11.42 11.89 4.52 0 8.05-2.32 9.79-6.11h8.05c-2.16 7.84-9 13.26-17.78 13.26C244.24 109.15 236.19 100.94 236.19 90.09zM306.47 94.04c0 8.74-6.64 15.11-15.11 15.11-8.42 0-15.06-6.42-15.06-15.11 0-8.74 6.73-15.11 15.06-15.11C299.72 78.94 306.47 85.3 306.47 94.04zM283.88 94.04c0 4.79 3.26 7.94 7.48 7.94s7.48-3.16 7.48-7.94c0-4.74-3.26-7.94-7.48-7.94S283.88 89.31 283.88 94.04zM337.21 79.57v28.94h-7.52v-4c-2.1 2.95-4.94 4.63-8.95 4.63-6.37 0-10.32-4.37-10.32-11.42V79.57h7.52v16.52c0 3.79 1.43 5.89 5.32 5.89 4.15 0 6.42-2.47 6.42-7.21v-15.2H337.21zM369.63 90.37v18.16h-7.52V91.99c0-3.79-1.42-5.89-5.42-5.89-4.26 0-6.53 2.47-6.53 7.21v15.2h-7.54V79.57h7.54v3.95c2.1-2.95 5-4.57 9-4.57C365.69 78.94 369.63 83.25 369.63 90.37zM397.64 106.83c-1.57 1.06-5.16 2.32-8.63 2.32-5.78 0-10.84-3.47-10.84-11.78V86.68h-5.16v-7.1h5.16v-6.26l7.52-1.63v7.9h10.74v7.1H385.7v10.26c0 3.42 1.63 5.21 4.63 5.21 1.68 0 3.68-.58 6.05-1.43L397.64 106.83zM420.29 79.04v7.74c-.59-.05-1.01-.11-1.85-.11-4.79 0-8.89 2.1-8.89 8.95v12.89h-7.54V79.57h7.54v5.05c1.79-3.79 4.94-5.69 9.05-5.69C419.28 78.94 419.81 78.99 420.29 79.04zM452.96 79.57l-18.84 42.11h-8l7.58-17-11.16-25.1h8l7.16 16.94 7.21-16.94C444.92 79.57 452.96 79.57 452.96 79.57zM499.4 97.89c0 6.73-4.85 10.63-12.42 10.63h-16.26V71.67h16.15c6.79 0 11.27 3.26 11.27 9.58 0 3.68-1.58 5.89-4.57 7.43C497.51 90 499.4 93.57 499.4 97.89zM485.87 78.84h-7.63v7.42h7.85c3.11 0 4.48-1.26 4.48-3.73C490.56 79.83 489.02 78.84 485.87 78.84zM491.76 97.26c0-2.69-1.1-4.1-5-4.1h-8.53v8.21h8.58C490.65 101.36 491.76 99.73 491.76 97.26zM533.04 79.57l-.05 28.94h-7.54v-3.9c-1.99 2.74-5 4.52-9.05 4.52-7.58 0-13.21-6.22-13.21-15.11 0-8.94 5.74-15.11 13.16-15.11 4.1 0 7.16 1.9 9.16 4.68v-4.06h7.52V79.57zM525.52 94.04c0-4.74-3.22-7.94-7.43-7.94-4.21 0-7.32 3.22-7.32 7.94 0 4.79 3.16 7.94 7.32 7.94C522.3 102 525.52 98.84 525.52 94.04zM565.52 90.37v18.16h-7.54V91.99c0-3.79-1.42-5.89-5.42-5.89-4.26 0-6.53 2.47-6.53 7.21v15.2h-7.52V79.57h7.52v3.95c2.1-2.95 5-4.57 9-4.57C561.58 78.94 565.52 83.25 565.52 90.37zM590.36 108.52l-11.84-12.64v12.64H571V67.99h7.52v23.64l11-12.06h9.58l-13.21 13.79L600 108.52H590.36z" fill="#b5121b"/></svg>